<?xml version="1.0" standalone="no"?>
<!DOCTYPE svg PUBLIC "-//W3C//DTD SVG 20010904//EN"
 "http://www.w3.org/TR/2001/REC-SVG-20010904/DTD/svg10.dtd">
<svg version="1.0" xmlns="http://www.w3.org/2000/svg"
 width="276.000000pt" height="276.000000pt" viewBox="0 0 276.000000 276.000000"
 preserveAspectRatio="xMidYMid meet">
<metadata>
Created by potrace 1.14, written by Peter Selinger 2001-2017
</metadata>
<g transform="translate(0.000000,276.000000) scale(0.100000,-0.100000)"
fill="#000000" stroke="none">
<path d="M1115 2679 c-38 -5 -92 -16 -120 -25 -119 -38 -267 -141 -351 -244
-25 -30 -96 -107 -157 -170 -327 -336 -443 -622 -409 -1007 6 -70 21 -173 32
-228 19 -89 20 -108 9 -178 -16 -107 -6 -195 30 -274 39 -83 125 -170 208
-209 34 -16 65 -37 69 -48 10 -30 75 -96 94 -96 16 0 50 29 50 42 0 3 -33 59
-74 125 -91 147 -194 350 -236 468 -41 116 -52 242 -25 299 39 82 96 84 175 5
55 -55 155 -202 226 -332 26 -48 50 -87 54 -87 3 0 34 35 68 77 176 224 367
373 562 439 83 29 229 26 295 -4 126 -58 198 -185 211 -370 14 -186 -47 -377
-192 -600 -58 -89 -60 -97 -42 -137 11 -24 16 -26 48 -21 60 9 162 46 240 86
57 28 108 44 210 64 175 35 240 57 301 102 100 73 203 244 280 464 31 86 34
106 34 205 0 104 -2 113 -32 170 -17 33 -47 77 -66 97 -33 36 -34 40 -40 140
-8 131 -53 313 -106 422 -88 182 -250 359 -501 550 -41 31 -102 79 -135 107
-86 72 -167 124 -233 150 -50 20 -79 23 -232 25 -96 1 -206 -2 -245 -7z m394
-79 c64 -12 146 -50 197 -92 22 -17 31 -28 21 -25 -10 4 -49 10 -85 13 -85 8
-177 -14 -236 -56 -83 -60 -167 -180 -228 -329 -57 -136 -67 -145 -185 -160
-136 -18 -334 -16 -371 3 -35 18 -42 33 -42 94 0 113 68 260 165 357 119 119
249 175 465 198 75 8 250 7 299 -3z m-519 -784 c50 -16 60 -44 60 -174 0 -139
-15 -245 -43 -294 -32 -58 -69 -68 -271 -71 -157 -2 -176 0 -194 16 -58 53
-49 378 12 472 26 40 64 58 134 65 88 8 258 0 302 -14z m1510 -518 c129 -149
155 -203 145 -292 -16 -145 -136 -418 -229 -521 -29 -33 -76 -73 -103 -88 -52
-28 -147 -46 -240 -47 l-52 0 -30 63 c-41 82 -48 156 -27 275 37 212 132 405
266 541 72 73 122 100 220 120 3 1 25 -22 50 -51z"/>
<path d="M2457 1038 c-94 -90 -187 -304 -190 -439 -2 -69 16 -96 57 -85 91 23
234 300 239 462 3 98 -41 123 -106 62z"/>
</g>
</svg>
