<?xml version="1.0" standalone="no"?>
<!DOCTYPE svg PUBLIC "-//W3C//DTD SVG 20010904//EN"
 "http://www.w3.org/TR/2001/REC-SVG-20010904/DTD/svg10.dtd">
<svg version="1.0" xmlns="http://www.w3.org/2000/svg"
 width="276.000000pt" height="276.000000pt" viewBox="0 0 276.000000 276.000000"
 preserveAspectRatio="xMidYMid meet">
<metadata>
Created by potrace 1.14, written by Peter Selinger 2001-2017
</metadata>
<g transform="translate(0.000000,276.000000) scale(0.100000,-0.100000)"
fill="#000000" stroke="none">
<path d="M1127 2674 c-55 -7 -124 -23 -155 -34 -91 -34 -202 -109 -274 -185
-37 -38 -127 -133 -200 -211 -151 -159 -247 -288 -312 -419 -60 -123 -74 -164
-97 -299 -25 -145 -5 -425 41 -585 5 -19 4 -60 -3 -108 -28 -183 4 -287 124
-404 31 -31 82 -69 113 -84 31 -15 62 -37 68 -49 17 -33 59 -80 77 -87 9 -4
25 2 38 13 l21 20 -46 71 c-139 215 -254 454 -294 609 -54 213 43 353 168 241
65 -59 212 -275 271 -398 9 -19 20 -35 23 -35 4 0 34 35 67 77 127 161 296
311 423 376 117 60 194 81 302 80 170 -1 292 -108 337 -297 27 -113 10 -313
-38 -434 -34 -86 -107 -225 -155 -296 l-46 -67 16 -34 c14 -30 20 -34 43 -29
60 15 207 67 221 79 34 28 84 46 206 70 71 15 149 31 174 37 164 40 291 182
390 438 67 175 74 201 74 295 0 80 -3 97 -30 155 -17 36 -47 82 -66 103 -33
35 -36 43 -42 121 -26 324 -121 535 -344 763 -88 89 -214 197 -281 241 -14 10
-39 30 -56 46 -44 42 -205 160 -245 181 -19 10 -57 25 -85 32 -68 20 -306 23
-428 7z m410 -74 c21 -6 58 -21 83 -32 82 -37 174 -114 105 -88 -13 5 -71 8
-127 7 -142 -3 -195 -33 -296 -167 -52 -69 -78 -118 -142 -265 -31 -71 -55
-93 -109 -101 -25 -4 -55 -8 -66 -11 -11 -2 -79 -6 -151 -10 -136 -6 -212 4
-240 31 -24 24 -27 88 -9 162 37 149 108 259 218 340 121 89 228 126 407 140
47 4 86 7 88 9 8 7 208 -5 239 -15z m-532 -781 c44 -21 54 -63 50 -204 -6
-227 -34 -305 -115 -329 -68 -20 -365 -22 -395 -2 -77 51 -55 445 29 515 39
33 90 40 246 37 110 -2 164 -7 185 -17z m1496 -514 c60 -64 118 -143 135 -183
15 -37 19 -116 9 -167 -11 -53 -53 -171 -90 -250 -19 -42 -35 -78 -35 -81 0
-14 -80 -125 -119 -164 -85 -85 -134 -105 -279 -109 -106 -3 -112 0 -145 68
-27 58 -34 224 -12 318 75 319 294 608 467 612 20 1 39 -11 69 -44z"/>
<path d="M2488 1052 c-48 -32 -88 -86 -138 -187 -78 -161 -103 -307 -58 -339
33 -23 73 5 135 94 99 145 163 380 118 430 -22 24 -23 24 -57 2z"/>
</g>
</svg>
